<?xml version="1.0" encoding="utf-8"?>
<!-- Generator: Adobe Illustrator 26.0.3, SVG Export Plug-In . SVG Version: 6.00 Build 0)  -->
<svg version="1.1" id="Layer_1" xmlns="http://www.w3.org/2000/svg" xmlns:xlink="http://www.w3.org/1999/xlink" x="0px" y="0px"
	 viewBox="0 0 335 137.7" style="enable-background:new 0 0 335 137.7;" xml:space="preserve">
<style type="text/css">
	.st0{fill:#FFFFFF;}
</style>
<g>
	<g>
		<g>
			<path class="st0" d="M52.4,101.7L30,62.1h-9.6v39.6H0V0.1h38.1c7.9,0,14.5,1.4,20.1,4.1s9.7,6.5,12.4,11.2
				c2.8,4.7,4.1,10,4.1,15.8c0,6.7-1.9,12.7-5.8,18.1c-3.9,5.4-9.6,9.1-17.3,11.1l24.3,41.2H52.4z M20.4,46.8h17
				c5.5,0,9.6-1.3,12.4-4c2.7-2.7,4.1-6.4,4.1-11.1c0-4.7-1.4-8.3-4.1-10.8C47,18.3,42.9,17,37.4,17h-17V46.8z"/>
			<path class="st0" d="M113.6,16.6V42h34.2v16.1h-34.2v26.9h38.5v16.6H93.2V0h58.9v16.6H113.6z"/>
			<path class="st0" d="M240.8,46.8c-2.6,4.8-6.6,8.6-12.1,11.5c-5.5,2.9-12.4,4.4-20.7,4.4h-17v39h-20.4V0.1H208
				c7.9,0,14.5,1.4,20.1,4.1c5.5,2.7,9.7,6.5,12.4,11.2c2.8,4.8,4.1,10.1,4.1,16.1C244.6,37,243.4,42.1,240.8,46.8z M219.6,42.4
				c2.7-2.6,4.1-6.2,4.1-10.8c0-9.9-5.5-14.8-16.6-14.8H191v29.5h16.1C212.7,46.3,216.9,45,219.6,42.4z"/>
			<path class="st0" d="M311.4,101.7L289,62.1h-9.6v39.6H259V0.1h38.1c7.9,0,14.5,1.4,20.1,4.1c5.5,2.8,9.7,6.5,12.4,11.2
				c2.8,4.7,4.1,10,4.1,15.8c0,6.7-1.9,12.7-5.8,18.1c-3.9,5.4-9.6,9.1-17.3,11.1l24.3,41.2H311.4z M279.4,46.8h17
				c5.5,0,9.6-1.3,12.4-4s4.1-6.4,4.1-11.1c0-4.7-1.4-8.3-4.1-10.8c-2.7-2.6-6.8-3.9-12.4-3.9h-17V46.8z"/>
		</g>
		<g>
			<path class="st0" d="M6.4,133l-2.9-5H1.6v5H0v-12.2h3.9c0.9,0,1.7,0.2,2.3,0.5s1.1,0.7,1.4,1.3c0.3,0.5,0.5,1.1,0.5,1.8
				c0,0.8-0.2,1.6-0.7,2.2c-0.5,0.6-1.2,1.1-2.2,1.3l3.1,5.1H6.4z M1.6,126.8h2.3c0.9,0,1.5-0.2,1.9-0.6c0.4-0.4,0.6-1,0.6-1.7
				c0-0.7-0.2-1.3-0.6-1.7c-0.4-0.4-1.1-0.6-1.9-0.6H1.6V126.8z"/>
			<path class="st0" d="M19.3,128.8h-7.6c0.1,0.9,0.4,1.7,1,2.2c0.6,0.5,1.3,0.8,2.1,0.8c0.7,0,1.3-0.2,1.7-0.5
				c0.5-0.3,0.8-0.7,1-1.3h1.7c-0.3,0.9-0.8,1.7-1.5,2.2c-0.8,0.6-1.7,0.9-2.9,0.9c-0.9,0-1.7-0.2-2.4-0.6c-0.7-0.4-1.3-1-1.7-1.7
				c-0.4-0.7-0.6-1.6-0.6-2.6c0-1,0.2-1.9,0.6-2.6s1-1.3,1.7-1.7s1.5-0.6,2.5-0.6c0.9,0,1.7,0.2,2.4,0.6c0.7,0.4,1.2,0.9,1.6,1.6
				c0.4,0.7,0.6,1.5,0.6,2.3C19.3,128.2,19.3,128.5,19.3,128.8z M17.3,126c-0.3-0.4-0.6-0.8-1.1-1c-0.5-0.2-1-0.3-1.5-0.3
				c-0.8,0-1.5,0.3-2.1,0.8c-0.6,0.5-0.9,1.2-1,2.1h6C17.7,126.9,17.6,126.4,17.3,126z"/>
			<path class="st0" d="M22.8,132.8c-0.6-0.2-1-0.6-1.4-1c-0.3-0.4-0.5-1-0.6-1.5h1.6c0,0.5,0.3,0.9,0.7,1.2
				c0.4,0.3,0.9,0.5,1.6,0.5c0.6,0,1.1-0.1,1.4-0.4c0.3-0.3,0.5-0.6,0.5-1c0-0.4-0.2-0.7-0.6-0.9c-0.4-0.2-0.9-0.4-1.7-0.6
				c-0.7-0.2-1.3-0.4-1.7-0.6c-0.4-0.2-0.8-0.5-1.2-0.9c-0.3-0.4-0.5-0.9-0.5-1.5c0-0.5,0.1-0.9,0.4-1.3c0.3-0.4,0.7-0.7,1.2-1
				c0.5-0.2,1.1-0.4,1.8-0.4c1.1,0,1.9,0.3,2.6,0.8c0.7,0.5,1,1.3,1,2.2h-1.6c0-0.5-0.2-0.9-0.6-1.2c-0.4-0.3-0.9-0.5-1.5-0.5
				c-0.6,0-1,0.1-1.4,0.4c-0.3,0.2-0.5,0.6-0.5,1c0,0.3,0.1,0.6,0.3,0.8c0.2,0.2,0.5,0.4,0.8,0.5c0.3,0.1,0.7,0.3,1.3,0.4
				c0.7,0.2,1.2,0.4,1.7,0.6c0.4,0.2,0.8,0.5,1.1,0.8c0.3,0.4,0.5,0.8,0.5,1.4c0,0.5-0.1,1-0.4,1.4c-0.3,0.4-0.7,0.7-1.2,1
				c-0.5,0.2-1.1,0.4-1.8,0.4C24.1,133.2,23.4,133,22.8,132.8z"/>
			<path class="st0" d="M30.6,121.6c-0.2-0.2-0.3-0.5-0.3-0.8c0-0.3,0.1-0.6,0.3-0.8c0.2-0.2,0.5-0.3,0.8-0.3c0.3,0,0.5,0.1,0.7,0.3
				s0.3,0.5,0.3,0.8c0,0.3-0.1,0.6-0.3,0.8c-0.2,0.2-0.5,0.3-0.7,0.3C31.1,121.9,30.8,121.8,30.6,121.6z M32.1,123.5v9.6h-1.6v-9.6
				H32.1z"/>
			<path class="st0" d="M34.8,125.6c0.4-0.7,0.9-1.3,1.6-1.7c0.7-0.4,1.5-0.6,2.3-0.6c0.7,0,1.4,0.2,2.1,0.5
				c0.6,0.3,1.1,0.8,1.5,1.4v-5.1h1.6V133h-1.6v-1.8c-0.3,0.6-0.8,1-1.4,1.4c-0.6,0.4-1.3,0.6-2.2,0.6c-0.8,0-1.6-0.2-2.3-0.6
				c-0.7-0.4-1.2-1-1.6-1.8c-0.4-0.8-0.6-1.6-0.6-2.6C34.2,127.2,34.4,126.4,34.8,125.6z M41.9,126.3c-0.3-0.5-0.7-0.9-1.2-1.2
				s-1-0.4-1.6-0.4c-0.6,0-1.1,0.1-1.6,0.4c-0.5,0.3-0.9,0.7-1.2,1.2c-0.3,0.5-0.4,1.2-0.4,1.9c0,0.7,0.1,1.4,0.4,1.9
				c0.3,0.5,0.7,1,1.2,1.2c0.5,0.3,1,0.4,1.6,0.4c0.6,0,1.1-0.1,1.6-0.4c0.5-0.3,0.9-0.7,1.2-1.2c0.3-0.5,0.4-1.2,0.4-1.9
				C42.3,127.5,42.2,126.9,41.9,126.3z"/>
			<path class="st0" d="M55.3,128.8h-7.6c0.1,0.9,0.4,1.7,1,2.2c0.6,0.5,1.3,0.8,2.1,0.8c0.7,0,1.3-0.2,1.7-0.5
				c0.5-0.3,0.8-0.7,1-1.3h1.7c-0.3,0.9-0.8,1.7-1.5,2.2c-0.8,0.6-1.7,0.9-2.9,0.9c-0.9,0-1.7-0.2-2.4-0.6c-0.7-0.4-1.3-1-1.7-1.7
				c-0.4-0.7-0.6-1.6-0.6-2.6c0-1,0.2-1.9,0.6-2.6c0.4-0.7,1-1.3,1.7-1.7c0.7-0.4,1.5-0.6,2.5-0.6c0.9,0,1.7,0.2,2.4,0.6
				c0.7,0.4,1.2,0.9,1.6,1.6c0.4,0.7,0.6,1.5,0.6,2.3C55.4,128.2,55.3,128.5,55.3,128.8z M53.3,126c-0.3-0.4-0.6-0.8-1.1-1
				c-0.5-0.2-1-0.3-1.5-0.3c-0.8,0-1.5,0.3-2.1,0.8c-0.6,0.5-0.9,1.2-1,2.1h6C53.7,126.9,53.6,126.4,53.3,126z"/>
			<path class="st0" d="M64.9,124.3c0.7,0.7,1.1,1.7,1.1,3v5.6h-1.6v-5.4c0-1-0.2-1.7-0.7-2.2c-0.5-0.5-1.1-0.8-2-0.8
				c-0.8,0-1.5,0.3-2,0.8c-0.5,0.5-0.7,1.3-0.7,2.3v5.3h-1.6v-9.6H59v1.4c0.3-0.5,0.7-0.9,1.3-1.1c0.5-0.3,1.1-0.4,1.8-0.4
				C63.3,123.3,64.2,123.6,64.9,124.3z"/>
			<path class="st0" d="M70.6,124.8v5.6c0,0.5,0.1,0.8,0.3,1c0.2,0.2,0.5,0.3,1,0.3h1.2v1.3h-1.4c-0.9,0-1.5-0.2-2-0.6
				c-0.4-0.4-0.7-1.1-0.7-2v-5.6h-1.2v-1.3H69V121h1.6v2.4h2.5v1.3H70.6z"/>
			<path class="st0" d="M75,121.6c-0.2-0.2-0.3-0.5-0.3-0.8c0-0.3,0.1-0.6,0.3-0.8c0.2-0.2,0.5-0.3,0.8-0.3c0.3,0,0.5,0.1,0.7,0.3
				c0.2,0.2,0.3,0.5,0.3,0.8c0,0.3-0.1,0.6-0.3,0.8c-0.2,0.2-0.5,0.3-0.7,0.3C75.5,121.9,75.2,121.8,75,121.6z M76.6,123.5v9.6H75
				v-9.6H76.6z"/>
			<path class="st0" d="M79.3,125.6c0.4-0.7,0.9-1.3,1.6-1.7c0.7-0.4,1.5-0.6,2.3-0.6c0.8,0,1.6,0.2,2.2,0.5
				c0.6,0.4,1.1,0.8,1.4,1.4v-1.7h1.6v9.6h-1.6v-1.8c-0.3,0.6-0.8,1-1.4,1.4c-0.6,0.4-1.3,0.6-2.2,0.6c-0.8,0-1.6-0.2-2.3-0.6
				c-0.7-0.4-1.2-1-1.6-1.8c-0.4-0.8-0.6-1.6-0.6-2.6C78.7,127.2,78.9,126.4,79.3,125.6z M86.3,126.3c-0.3-0.5-0.7-0.9-1.2-1.2
				c-0.5-0.3-1-0.4-1.6-0.4c-0.6,0-1.1,0.1-1.6,0.4c-0.5,0.3-0.9,0.7-1.2,1.2c-0.3,0.5-0.4,1.2-0.4,1.9c0,0.7,0.1,1.4,0.4,1.9
				c0.3,0.5,0.7,1,1.2,1.2c0.5,0.3,1,0.4,1.6,0.4c0.6,0,1.1-0.1,1.6-0.4c0.5-0.3,0.9-0.7,1.2-1.2c0.3-0.5,0.4-1.2,0.4-1.9
				C86.8,127.5,86.6,126.9,86.3,126.3z"/>
			<path class="st0" d="M92.7,120.1V133h-1.6v-12.9H92.7z"/>
			<path class="st0" d="M101.6,122.1v4.1h4.4v1.3h-4.4v4.2h5v1.3H100v-12.2h6.5v1.3H101.6z"/>
			<path class="st0" d="M116.5,124.3c0.7,0.7,1.1,1.7,1.1,3v5.6H116v-5.4c0-1-0.2-1.7-0.7-2.2c-0.5-0.5-1.1-0.8-2-0.8
				c-0.8,0-1.5,0.3-2,0.8c-0.5,0.5-0.7,1.3-0.7,2.3v5.3H109v-9.6h1.6v1.4c0.3-0.5,0.7-0.9,1.3-1.1c0.5-0.3,1.1-0.4,1.8-0.4
				C114.8,123.3,115.7,123.6,116.5,124.3z"/>
			<path class="st0" d="M128.8,128.8h-7.6c0.1,0.9,0.4,1.7,1,2.2c0.6,0.5,1.3,0.8,2.1,0.8c0.7,0,1.3-0.2,1.7-0.5
				c0.5-0.3,0.8-0.7,1-1.3h1.7c-0.3,0.9-0.8,1.7-1.5,2.2c-0.8,0.6-1.7,0.9-2.9,0.9c-0.9,0-1.7-0.2-2.4-0.6c-0.7-0.4-1.3-1-1.7-1.7
				c-0.4-0.7-0.6-1.6-0.6-2.6c0-1,0.2-1.9,0.6-2.6c0.4-0.7,1-1.3,1.7-1.7s1.5-0.6,2.5-0.6c0.9,0,1.7,0.2,2.4,0.6
				c0.7,0.4,1.2,0.9,1.6,1.6c0.4,0.7,0.6,1.5,0.6,2.3C128.9,128.2,128.9,128.5,128.8,128.8z M126.8,126c-0.3-0.4-0.6-0.8-1.1-1
				c-0.5-0.2-1-0.3-1.5-0.3c-0.8,0-1.5,0.3-2.1,0.8c-0.6,0.5-0.9,1.2-1,2.1h6C127.2,126.9,127.1,126.4,126.8,126z"/>
			<path class="st0" d="M133.7,123.7c0.5-0.3,1.1-0.5,1.9-0.5v1.6h-0.4c-1.8,0-2.7,1-2.7,2.9v5.2H131v-9.6h1.6v1.6
				C132.8,124.5,133.2,124,133.7,123.7z"/>
			<path class="st0" d="M143.6,123.8c0.6,0.4,1.1,0.8,1.4,1.4v-1.7h1.6v9.8c0,0.9-0.2,1.6-0.6,2.3c-0.4,0.7-0.9,1.2-1.6,1.6
				c-0.7,0.4-1.5,0.6-2.4,0.6c-1.3,0-2.3-0.3-3.1-0.9c-0.8-0.6-1.3-1.4-1.5-2.4h1.6c0.2,0.6,0.5,1.1,1.1,1.4c0.5,0.4,1.2,0.5,2,0.5
				c0.9,0,1.6-0.3,2.1-0.8c0.6-0.5,0.8-1.3,0.8-2.3v-2c-0.3,0.6-0.8,1-1.4,1.4c-0.6,0.4-1.3,0.6-2.2,0.6c-0.8,0-1.6-0.2-2.3-0.6
				c-0.7-0.4-1.2-1-1.6-1.8c-0.4-0.8-0.6-1.6-0.6-2.6c0-1,0.2-1.8,0.6-2.6c0.4-0.7,0.9-1.3,1.6-1.7c0.7-0.4,1.5-0.6,2.3-0.6
				C142.2,123.3,143,123.5,143.6,123.8z M144.5,126.3c-0.3-0.5-0.7-0.9-1.2-1.2s-1-0.4-1.6-0.4c-0.6,0-1.1,0.1-1.6,0.4
				c-0.5,0.3-0.9,0.7-1.2,1.2c-0.3,0.5-0.4,1.2-0.4,1.9c0,0.7,0.1,1.4,0.4,1.9c0.3,0.5,0.7,1,1.2,1.2c0.5,0.3,1,0.4,1.6,0.4
				c0.6,0,1.1-0.1,1.6-0.4c0.5-0.3,0.9-0.7,1.2-1.2c0.3-0.5,0.4-1.2,0.4-1.9C145,127.5,144.8,126.9,144.5,126.3z"/>
			<path class="st0" d="M157.5,123.5l-5.8,14.1h-1.6l1.9-4.6l-3.9-9.5h1.8l3,7.8l3-7.8H157.5z"/>
			<path class="st0" d="M170.9,126.9c-0.7,0.7-1.7,1-3.2,1h-2.3v5.1h-1.6v-12.2h3.9c1.4,0,2.4,0.3,3.1,1c0.7,0.7,1.1,1.5,1.1,2.6
				C171.9,125.4,171.5,126.3,170.9,126.9z M169.6,126.1c0.4-0.4,0.6-0.9,0.6-1.6c0-1.5-0.9-2.2-2.6-2.2h-2.3v4.5h2.3
				C168.6,126.6,169.2,126.4,169.6,126.1z"/>
			<path class="st0" d="M182.5,128.8h-7.6c0.1,0.9,0.4,1.7,1,2.2c0.6,0.5,1.3,0.8,2.1,0.8c0.7,0,1.3-0.2,1.7-0.5
				c0.5-0.3,0.8-0.7,1-1.3h1.7c-0.3,0.9-0.8,1.7-1.5,2.2c-0.8,0.6-1.7,0.9-2.9,0.9c-0.9,0-1.7-0.2-2.4-0.6c-0.7-0.4-1.3-1-1.7-1.7
				c-0.4-0.7-0.6-1.6-0.6-2.6c0-1,0.2-1.9,0.6-2.6s1-1.3,1.7-1.7s1.5-0.6,2.5-0.6c0.9,0,1.7,0.2,2.4,0.6c0.7,0.4,1.2,0.9,1.6,1.6
				c0.4,0.7,0.6,1.5,0.6,2.3C182.6,128.2,182.6,128.5,182.5,128.8z M180.5,126c-0.3-0.4-0.6-0.8-1.1-1c-0.5-0.2-1-0.3-1.5-0.3
				c-0.8,0-1.5,0.3-2.1,0.8c-0.6,0.5-0.9,1.2-1,2.1h6C180.9,126.9,180.8,126.4,180.5,126z"/>
			<path class="st0" d="M187.5,123.7c0.5-0.3,1.1-0.5,1.9-0.5v1.6h-0.4c-1.8,0-2.7,1-2.7,2.9v5.2h-1.6v-9.6h1.6v1.6
				C186.6,124.5,186.9,124,187.5,123.7z"/>
			<path class="st0" d="M195.1,124.8h-2v8.3h-1.6v-8.3h-1.2v-1.3h1.2v-0.7c0-1.1,0.3-1.9,0.8-2.3c0.6-0.5,1.4-0.7,2.7-0.7v1.3
				c-0.7,0-1.2,0.1-1.5,0.4s-0.4,0.7-0.4,1.4v0.7h2V124.8z"/>
			<path class="st0" d="M198.7,132.6c-0.7-0.4-1.3-1-1.7-1.7c-0.4-0.7-0.6-1.6-0.6-2.6c0-1,0.2-1.8,0.6-2.6c0.4-0.7,1-1.3,1.7-1.7
				s1.6-0.6,2.5-0.6c0.9,0,1.7,0.2,2.5,0.6s1.3,1,1.7,1.7s0.6,1.6,0.6,2.6c0,1-0.2,1.9-0.7,2.6c-0.4,0.8-1,1.3-1.8,1.7
				c-0.7,0.4-1.6,0.6-2.5,0.6C200.2,133.2,199.4,133,198.7,132.6z M202.7,131.4c0.5-0.3,0.9-0.7,1.2-1.2c0.3-0.5,0.5-1.2,0.5-2
				c0-0.8-0.2-1.4-0.5-2c-0.3-0.5-0.7-0.9-1.2-1.2c-0.5-0.3-1-0.4-1.6-0.4c-0.6,0-1.1,0.1-1.6,0.4c-0.5,0.3-0.9,0.7-1.2,1.2
				c-0.3,0.5-0.4,1.2-0.4,2c0,0.8,0.1,1.4,0.4,2c0.3,0.5,0.7,0.9,1.1,1.2c0.5,0.3,1,0.4,1.6,0.4
				C201.7,131.8,202.2,131.6,202.7,131.4z"/>
			<path class="st0" d="M210.9,123.7c0.5-0.3,1.1-0.5,1.9-0.5v1.6h-0.4c-1.8,0-2.7,1-2.7,2.9v5.2h-1.6v-9.6h1.6v1.6
				C210,124.5,210.4,124,210.9,123.7z"/>
			<path class="st0" d="M228.1,123.7c0.6,0.3,1,0.8,1.4,1.4c0.3,0.6,0.5,1.4,0.5,2.3v5.6h-1.6v-5.4c0-1-0.2-1.7-0.7-2.2
				c-0.5-0.5-1.1-0.8-1.9-0.8c-0.8,0-1.5,0.3-2,0.8c-0.5,0.5-0.7,1.3-0.7,2.3v5.3h-1.6v-5.4c0-1-0.2-1.7-0.7-2.2
				c-0.5-0.5-1.1-0.8-1.9-0.8c-0.8,0-1.5,0.3-2,0.8c-0.5,0.5-0.7,1.3-0.7,2.3v5.3h-1.6v-9.6h1.6v1.4c0.3-0.5,0.7-0.9,1.3-1.2
				s1.1-0.4,1.8-0.4c0.8,0,1.5,0.2,2.1,0.5c0.6,0.4,1.1,0.9,1.4,1.6c0.3-0.7,0.7-1.2,1.3-1.6c0.6-0.4,1.3-0.6,2.1-0.6
				C226.9,123.3,227.5,123.4,228.1,123.7z"/>
			<path class="st0" d="M232.6,125.6c0.4-0.7,0.9-1.3,1.6-1.7c0.7-0.4,1.5-0.6,2.3-0.6c0.8,0,1.6,0.2,2.2,0.5
				c0.6,0.4,1.1,0.8,1.4,1.4v-1.7h1.6v9.6h-1.6v-1.8c-0.3,0.6-0.8,1-1.4,1.4c-0.6,0.4-1.3,0.6-2.2,0.6c-0.8,0-1.6-0.2-2.3-0.6
				c-0.7-0.4-1.2-1-1.6-1.8c-0.4-0.8-0.6-1.6-0.6-2.6C232,127.2,232.2,126.4,232.6,125.6z M239.7,126.3c-0.3-0.5-0.7-0.9-1.2-1.2
				s-1-0.4-1.6-0.4c-0.6,0-1.1,0.1-1.6,0.4c-0.5,0.3-0.9,0.7-1.2,1.2c-0.3,0.5-0.4,1.2-0.4,1.9c0,0.7,0.1,1.4,0.4,1.9
				c0.3,0.5,0.7,1,1.2,1.2c0.5,0.3,1,0.4,1.6,0.4c0.6,0,1.1-0.1,1.6-0.4c0.5-0.3,0.9-0.7,1.2-1.2c0.3-0.5,0.4-1.2,0.4-1.9
				C240.1,127.5,239.9,126.9,239.7,126.3z"/>
			<path class="st0" d="M251.9,124.3c0.7,0.7,1.1,1.7,1.1,3v5.6h-1.6v-5.4c0-1-0.2-1.7-0.7-2.2c-0.5-0.5-1.1-0.8-2-0.8
				c-0.8,0-1.5,0.3-2,0.8c-0.5,0.5-0.7,1.3-0.7,2.3v5.3h-1.6v-9.6h1.6v1.4c0.3-0.5,0.7-0.9,1.3-1.1c0.5-0.3,1.1-0.4,1.8-0.4
				C250.2,123.3,251.2,123.6,251.9,124.3z"/>
			<path class="st0" d="M255.6,125.6c0.4-0.7,0.9-1.3,1.6-1.7c0.7-0.4,1.5-0.6,2.4-0.6c1.2,0,2.1,0.3,2.9,0.9s1.3,1.4,1.5,2.4h-1.7
				c-0.2-0.6-0.5-1-1-1.4c-0.5-0.3-1.1-0.5-1.8-0.5c-0.9,0-1.6,0.3-2.2,0.9c-0.6,0.6-0.8,1.5-0.8,2.6c0,1.2,0.3,2,0.8,2.7
				c0.6,0.6,1.3,0.9,2.2,0.9c0.7,0,1.3-0.2,1.7-0.5c0.5-0.3,0.8-0.8,1-1.4h1.7c-0.3,1-0.8,1.8-1.5,2.3c-0.8,0.6-1.7,0.9-2.9,0.9
				c-0.9,0-1.7-0.2-2.4-0.6c-0.7-0.4-1.3-1-1.6-1.7c-0.4-0.7-0.6-1.6-0.6-2.6C255,127.2,255.2,126.4,255.6,125.6z"/>
			<path class="st0" d="M274.8,128.8h-7.6c0.1,0.9,0.4,1.7,1,2.2c0.6,0.5,1.3,0.8,2.1,0.8c0.7,0,1.3-0.2,1.7-0.5
				c0.5-0.3,0.8-0.7,1-1.3h1.7c-0.3,0.9-0.8,1.7-1.5,2.2c-0.8,0.6-1.7,0.9-2.9,0.9c-0.9,0-1.7-0.2-2.4-0.6c-0.7-0.4-1.3-1-1.7-1.7
				c-0.4-0.7-0.6-1.6-0.6-2.6c0-1,0.2-1.9,0.6-2.6c0.4-0.7,1-1.3,1.7-1.7s1.5-0.6,2.5-0.6c0.9,0,1.7,0.2,2.4,0.6
				c0.7,0.4,1.2,0.9,1.6,1.6c0.4,0.7,0.6,1.5,0.6,2.3C274.9,128.2,274.9,128.5,274.8,128.8z M272.8,126c-0.3-0.4-0.6-0.8-1.1-1
				c-0.5-0.2-1-0.3-1.5-0.3c-0.8,0-1.5,0.3-2.1,0.8c-0.6,0.5-0.9,1.2-1,2.1h6C273.2,126.9,273.1,126.4,272.8,126z"/>
			<path class="st0" d="M288,133l-2.9-5h-1.9v5h-1.6v-12.2h3.9c0.9,0,1.7,0.2,2.3,0.5s1.1,0.7,1.4,1.3c0.3,0.5,0.5,1.1,0.5,1.8
				c0,0.8-0.2,1.6-0.7,2.2c-0.5,0.6-1.2,1.1-2.2,1.3l3.1,5.1H288z M283.2,126.8h2.3c0.9,0,1.5-0.2,1.9-0.6c0.4-0.4,0.6-1,0.6-1.7
				c0-0.7-0.2-1.3-0.6-1.7c-0.4-0.4-1.1-0.6-1.9-0.6h-2.3V126.8z"/>
			<path class="st0" d="M292.2,125.6c0.4-0.7,0.9-1.3,1.6-1.7c0.7-0.4,1.5-0.6,2.3-0.6c0.8,0,1.6,0.2,2.2,0.5
				c0.6,0.4,1.1,0.8,1.4,1.4v-1.7h1.6v9.6h-1.6v-1.8c-0.3,0.6-0.8,1-1.4,1.4c-0.6,0.4-1.3,0.6-2.2,0.6c-0.8,0-1.6-0.2-2.3-0.6
				c-0.7-0.4-1.2-1-1.6-1.8c-0.4-0.8-0.6-1.6-0.6-2.6C291.7,127.2,291.8,126.4,292.2,125.6z M299.3,126.3c-0.3-0.5-0.7-0.9-1.2-1.2
				c-0.5-0.3-1-0.4-1.6-0.4c-0.6,0-1.1,0.1-1.6,0.4c-0.5,0.3-0.9,0.7-1.2,1.2c-0.3,0.5-0.4,1.2-0.4,1.9c0,0.7,0.1,1.4,0.4,1.9
				c0.3,0.5,0.7,1,1.2,1.2c0.5,0.3,1,0.4,1.6,0.4c0.6,0,1.1-0.1,1.6-0.4c0.5-0.3,0.9-0.7,1.2-1.2c0.3-0.5,0.4-1.2,0.4-1.9
				C299.7,127.5,299.6,126.9,299.3,126.3z"/>
			<path class="st0" d="M306,124.8v5.6c0,0.5,0.1,0.8,0.3,1c0.2,0.2,0.5,0.3,1,0.3h1.2v1.3H307c-0.9,0-1.5-0.2-2-0.6
				c-0.4-0.4-0.7-1.1-0.7-2v-5.6h-1.2v-1.3h1.2V121h1.6v2.4h2.5v1.3H306z"/>
			<path class="st0" d="M310.4,121.6c-0.2-0.2-0.3-0.5-0.3-0.8c0-0.3,0.1-0.6,0.3-0.8c0.2-0.2,0.5-0.3,0.8-0.3
				c0.3,0,0.5,0.1,0.7,0.3s0.3,0.5,0.3,0.8c0,0.3-0.1,0.6-0.3,0.8c-0.2,0.2-0.5,0.3-0.7,0.3C310.9,121.9,310.7,121.8,310.4,121.6z
				 M312,123.5v9.6h-1.6v-9.6H312z"/>
			<path class="st0" d="M322.2,124.3c0.7,0.7,1.1,1.7,1.1,3v5.6h-1.6v-5.4c0-1-0.2-1.7-0.7-2.2c-0.5-0.5-1.1-0.8-2-0.8
				c-0.8,0-1.5,0.3-2,0.8c-0.5,0.5-0.7,1.3-0.7,2.3v5.3h-1.6v-9.6h1.6v1.4c0.3-0.5,0.7-0.9,1.3-1.1c0.5-0.3,1.1-0.4,1.8-0.4
				C320.5,123.3,321.5,123.6,322.2,124.3z"/>
			<path class="st0" d="M332,123.8c0.6,0.4,1.1,0.8,1.4,1.4v-1.7h1.6v9.8c0,0.9-0.2,1.6-0.6,2.3c-0.4,0.7-0.9,1.2-1.6,1.6
				c-0.7,0.4-1.5,0.6-2.4,0.6c-1.3,0-2.3-0.3-3.1-0.9c-0.8-0.6-1.3-1.4-1.5-2.4h1.6c0.2,0.6,0.5,1.1,1.1,1.4c0.5,0.4,1.2,0.5,2,0.5
				c0.9,0,1.6-0.3,2.1-0.8c0.6-0.5,0.8-1.3,0.8-2.3v-2c-0.3,0.6-0.8,1-1.4,1.4c-0.6,0.4-1.3,0.6-2.2,0.6c-0.8,0-1.6-0.2-2.3-0.6
				c-0.7-0.4-1.2-1-1.6-1.8c-0.4-0.8-0.6-1.6-0.6-2.6c0-1,0.2-1.8,0.6-2.6c0.4-0.7,0.9-1.3,1.6-1.7c0.7-0.4,1.5-0.6,2.3-0.6
				C330.6,123.3,331.4,123.5,332,123.8z M332.9,126.3c-0.3-0.5-0.7-0.9-1.2-1.2c-0.5-0.3-1-0.4-1.6-0.4c-0.6,0-1.1,0.1-1.6,0.4
				c-0.5,0.3-0.9,0.7-1.2,1.2c-0.3,0.5-0.4,1.2-0.4,1.9c0,0.7,0.1,1.4,0.4,1.9c0.3,0.5,0.7,1,1.2,1.2c0.5,0.3,1,0.4,1.6,0.4
				c0.6,0,1.1-0.1,1.6-0.4c0.5-0.3,0.9-0.7,1.2-1.2c0.3-0.5,0.4-1.2,0.4-1.9C333.4,127.5,333.2,126.9,332.9,126.3z"/>
		</g>
	</g>
</g>
</svg>
